<svg width="64" height="64" viewBox="0 0 64 64" fill="none" xmlns="http://www.w3.org/2000/svg">
<path d="M14.2009 49.8571V50.3571H14.7009H22.1116H22.1228H22.6228V49.8571V25.9955V25.4955H22.1228H14.7009H14.2009V25.9955V49.8571ZM49.8906 50.3571H50.3906V49.8571V36.7768C50.3906 33.5512 50.0462 30.5816 48.6785 28.413C47.2776 26.1916 44.869 24.904 40.9955 24.904C37.9694 24.904 35.712 26.2275 34.375 27.7926V25.9955V25.4955H33.875H26.7656H26.2656V25.9955V49.8571V50.3571H26.7656H34.1763H34.6763V49.8571V38.0491C34.6763 36.5014 34.8281 35.0822 35.3926 34.0594C35.6683 33.5597 36.0407 33.1588 36.5466 32.8789C37.0555 32.5973 37.729 32.4219 38.6295 32.4219C39.498 32.4219 40.1072 32.6245 40.5453 32.9311C40.9847 33.2385 41.2948 33.6803 41.5126 34.2317C41.9596 35.3631 41.9799 36.8443 41.9799 38.25V49.8571V50.3571H42.4799H49.8906ZM10.5603 7.5H53.4286C55.1127 7.5 56.5 8.89039 56.5 10.6049V53.3951C56.5 55.1096 55.1127 56.5 53.4286 56.5H10.5603C8.87819 56.5 7.5 55.1117 7.5 53.3951V10.6049C7.5 8.88834 8.87819 7.5 10.5603 7.5ZM13.6094 18.4397C13.6094 21.0811 15.752 23.2366 18.4062 23.2366C21.0596 23.2366 23.2031 21.0931 23.2031 18.4397C23.2031 15.7975 21.0485 13.6429 18.4062 13.6429C15.752 13.6429 13.6094 15.7984 13.6094 18.4397Z" fill="#C025FF" stroke="#91BFFF"/>
</svg>
