<svg width="100" height="100" viewBox="0 0 100 100" fill="none" xmlns="http://www.w3.org/2000/svg">
<path d="M36.5 55.5H81.4C84.4 55.5 86.9 53 86.9 50C86.9 47 84.4 44.5 81.4 44.5H36.5C33.5 44.5 31 47 31 50C31 53 33.4 55.5 36.5 55.5Z" fill="white"/>
<path d="M55.9 86.8999H81.3C84.3 86.8999 86.8 84.3999 86.8 81.3999C86.8 78.3999 84.3 75.8999 81.3 75.8999H55.9C52.9 75.8999 50.4 78.3999 50.4 81.3999C50.4 84.4999 52.9 86.8999 55.9 86.8999Z" fill="white"/>
<path d="M19 24H81.4C84.4 24 86.9 21.5 86.9 18.5C86.9 15.5 84.4 13 81.4 13H19C16 13 13.5 15.5 13.5 18.5C13.5 21.5 15.9 24 19 24Z" fill="white"/>
</svg>
